<svg id="Calque_1" data-name="Calque 1" xmlns="http://www.w3.org/2000/svg" viewBox="0 0 59.35 59.35"><defs><style>.cls-1{fill:#ddd;}.cls-2{fill:#fff;}</style></defs><title>chapter</title><circle class="cls-1" cx="29.68" cy="29.68" r="29.68"/><path class="cls-2" d="M18.78,29.94V40.79A3.1,3.1,0,0,0,22,44c5.81,0,11.62,0,17.44,0a1.07,1.07,0,0,0,1.15-1.14c0-6.92,0-13.85,0-20.77,0-.78-.23-1.05-1-1.15a2.06,2.06,0,0,1-1.73-1.51,1.26,1.26,0,0,1,0-.72,2,2,0,0,1,1.88-1.5.88.88,0,0,0,.76-.56.84.84,0,0,0-.1-.91,1,1,0,0,0-.9-.39H22.62a5,5,0,0,0-.55,0,3.78,3.78,0,0,0-3.29,3.75Z"/><path d="M18.78,29.94V19.12a3.78,3.78,0,0,1,3.29-3.75,5,5,0,0,1,.55,0H39.48a1,1,0,0,1,.9.39.84.84,0,0,1,.1.91.88.88,0,0,1-.76.56,2,2,0,0,0-1.88,1.5,1.26,1.26,0,0,0,0,.72,2.06,2.06,0,0,0,1.73,1.51c.79.1,1,.37,1,1.15,0,6.92,0,13.85,0,20.77A1.07,1.07,0,0,1,39.43,44C33.61,44,27.8,44,22,44a3.1,3.1,0,0,1-3.21-3.2ZM38.67,42.11V22.82h-16a3.65,3.65,0,0,1-1.75-.39l-.25-.1v5.92q0,6.2,0,12.39a2,2,0,0,0,.14.81,1.21,1.21,0,0,0,1.26.68H38.67Zm-2.26-24.9H22.77a2,2,0,0,0-1.49.57,1.66,1.66,0,0,0-.58,1.67,2,2,0,0,0,2,1.5H36.4A3.75,3.75,0,0,1,36.41,17.21Z"/><path class="cls-2" d="M38.67,42.11H22.05a1.21,1.21,0,0,1-1.26-.68,2,2,0,0,1-.14-.81q0-6.2,0-12.39V22.33l.25.1a3.65,3.65,0,0,0,1.75.39h16Zm-9-15.56H24.11a.93.93,0,0,0-.88.54.9.9,0,0,0,.11,1,1,1,0,0,0,.89.36H35.12a1.49,1.49,0,0,0,.36-.05.86.86,0,0,0,.69-.64.94.94,0,0,0-1-1.2Zm0,5H24.08a.94.94,0,0,0-.88,1.3,1,1,0,0,0,1,.57H34c.41,0,.83,0,1.24,0a.94.94,0,1,0,0-1.87Zm0,6.84h5.64a.92.92,0,0,0,.9-.91.93.93,0,0,0-.87-.94H24a.89.89,0,0,0-.78.58A.9.9,0,0,0,24,38.37Z"/><path class="cls-2" d="M36.41,17.21a3.75,3.75,0,0,0,0,3.75H22.72a2,2,0,0,1-2-1.5,1.66,1.66,0,0,1,.58-1.67,2,2,0,0,1,1.49-.57H36.41Z"/><path d="M29.7,26.55h5.49a.94.94,0,0,1,1,1.2.86.86,0,0,1-.69.64,1.49,1.49,0,0,1-.36.05H24.23a1,1,0,0,1-.89-.36.9.9,0,0,1-.11-1,.93.93,0,0,1,.88-.54H29.7Z"/><path d="M29.67,31.54h5.52a.94.94,0,1,1,0,1.87c-.41,0-.83,0-1.24,0H24.23a1,1,0,0,1-1-.57.94.94,0,0,1,.88-1.3Z"/><path d="M29.67,38.38H24a.9.9,0,0,1-.82-1.26.89.89,0,0,1,.78-.58H35.34a.93.93,0,0,1,.87.94.92.92,0,0,1-.9.91Z"/></svg>